<svg id="visual" viewBox="0 0 960 540" width="960" height="540" xmlns="http://www.w3.org/2000/svg" xmlns:xlink="http://www.w3.org/1999/xlink" version="1.1"><rect x="0" y="0" width="960" height="540" fill="#051532"></rect><g transform="translate(447.34846829944127 247.35254231752742)"><path d="M160.8 -262.6C186.7 -263.7 170.8 -176.6 137.1 -118.1C103.3 -59.7 51.7 -29.8 74.3 13.1C97 56 194 112 198.1 119.1C202.2 126.1 113.3 84.3 64.8 119.1C16.3 154 8.2 265.5 -18.5 297.5C-45.2 329.6 -90.3 282.1 -104.8 227.6C-119.2 173.1 -102.9 111.6 -81 72.4C-59.1 33.3 -31.5 16.7 -47 -8.9C-62.4 -34.5 -120.8 -69 -131.2 -88.1C-141.5 -107.1 -103.8 -110.7 -73.9 -107.3C-44 -103.9 -22 -93.4 22.7 -132.8C67.5 -172.2 135 -261.5 160.8 -262.6" fill="#887df1"></path></g></svg>