<svg id="visual" viewBox="0 0 960 540" width="960" height="540" xmlns="http://www.w3.org/2000/svg" xmlns:xlink="http://www.w3.org/1999/xlink" version="1.1"><rect x="0" y="0" width="960" height="540" fill="#14185a"></rect><g transform="translate(543.4347705009944 290.8061296646247)"><path d="M119.7 -202.3C128 -180.9 89 -101.9 69.6 -57.3C50.2 -12.8 50.3 -2.8 71.6 26.7C92.9 56.1 135.2 105 129.3 112.4C123.5 119.9 69.3 85.8 29.1 96.3C-11.1 106.8 -37.4 161.8 -67.6 177.2C-97.9 192.6 -132.1 168.3 -175.9 140C-219.7 111.7 -273.2 79.3 -251.9 52.4C-230.6 25.5 -134.5 4 -110.4 -51.2C-86.4 -106.3 -134.4 -195.1 -128 -217.4C-121.6 -239.6 -60.8 -195.3 -2.6 -191.3C55.7 -187.3 111.4 -223.6 119.7 -202.3" fill="#b200ff"></path></g></svg>